<?xml version="1.0" encoding="utf-8"?>
<!-- Generator: Adobe Illustrator 17.0.0, SVG Export Plug-In . SVG Version: 6.00 Build 0)  -->
<!DOCTYPE svg PUBLIC "-//W3C//DTD SVG 1.1//EN" "http://www.w3.org/Graphics/SVG/1.1/DTD/svg11.dtd">
<svg version="1.1" id="Layer_1" xmlns="http://www.w3.org/2000/svg" xmlns:xlink="http://www.w3.org/1999/xlink" x="0px" y="0px"
	 width="377.513px" height="94.378px" viewBox="0 0 377.513 94.378" enable-background="new 0 0 377.513 94.378"
	 xml:space="preserve">
<g>
	<polygon fill-rule="evenodd" clip-rule="evenodd" fill="#FFFFFF" points="38.751,42.407 55.418,78.579 55.418,87.726 4.583,81.905 
		4.583,12.888 55.418,7.068 55.418,44.487 61.252,47.397 61.252,0 0,8.315 0,86.478 61.252,94.378 61.252,77.747 50.835,55.296 
		68.336,64.443 61.669,70.68 74.586,84.815 79.169,80.242 70.419,71.511 79.586,62.78 	"/>
	<polygon fill-rule="evenodd" clip-rule="evenodd" fill="#FFFFFF" points="105.003,82.737 112.504,82.737 112.504,66.106 
		125.421,66.106 125.421,60.286 112.92,60.286 112.92,49.891 126.254,49.891 126.254,43.239 105.003,43.239 	"/>
	<path fill-rule="evenodd" clip-rule="evenodd" fill="#FFFFFF" d="M139.172,59.87l0.833-6.236l-12.084,0.416v4.989l5,0.415v23.284
		h7.501c0,0-0.194-9.196,0-14.967c0.166-4.943,5.417-7.484,5.417-7.484h2.5c0,0,0-5.332,0-7.484
		C140.871,52.802,139.172,59.87,139.172,59.87z"/>
	<path fill-rule="evenodd" clip-rule="evenodd" fill="#FFFFFF" d="M174.589,61.117c0,0-0.6-9.136-11.667-7.899
		c-5.737,0.556-10.834,1.663-10.834,1.663l0.833,6.237c0,0,5.056-2.495,8.334-2.495c3.278,0,6.188,0.298,5.834,6.653
		c0-0.123-16.668-0.987-16.668,10.394c0,5.808,4.127,7.483,7.917,7.483c7.264,0,9.167-5.405,9.167-5.405h0.417v4.99l11.667-0.417
		v-4.573l-5-0.415V61.117z M161.672,77.747c-4.642,0.324-4.584-2.177-4.584-3.326c0-2.453,3.648-4.657,6.25-4.573
		c1.095,0,3.75,0,3.75,0S167.564,77.336,161.672,77.747z"/>
	<path fill-rule="evenodd" clip-rule="evenodd" fill="#FFFFFF" d="M218.758,53.218c-6.387,0-9.584,5.82-9.584,5.82
		s-0.706-5.82-8.334-5.82c-6.384,0-9.167,5.82-9.167,5.82v-5.405l-11.667,0.831v4.158l5,0.831v23.284h7.084V66.938
		c0,0,1.72-7.9,7.084-7.9c2.212,0,3.333,3.326,3.333,3.326v20.373h7.084V67.354c0,0,1.339-8.315,6.667-8.315
		c2.197,0,3.75,1.822,3.75,3.742c0,1.92,0,19.957,0,19.957h7.5V61.533C227.508,61.533,227.266,53.218,218.758,53.218z"/>
	<path fill-rule="evenodd" clip-rule="evenodd" fill="#FFFFFF" d="M245.842,53.218c-2.039,0-13.751,0.406-13.751,15.383
		c0,15.494,12.208,14.873,14.584,14.967c2.376,0.093,10.001-2.079,10.001-2.079l-0.417-5.82c0,0-2.726,2.078-8.75,2.078
		c-8.856,0-7.917-8.315-7.917-8.315h18.334c0,0,0.322-6.331,0-6.653C257.926,59.335,253.962,53.218,245.842,53.218z M240.008,64.443
		c0,0-0.322-5.821,5.834-5.821c4.601,0,5,5.821,5,5.821H240.008z"/>
	<polygon fill-rule="evenodd" clip-rule="evenodd" fill="#FFFFFF" points="299.594,52.386 290.01,73.59 287.927,54.049 
		280.843,54.049 271.676,73.59 270.009,53.633 262.509,53.633 265.426,82.737 273.343,82.737 282.093,63.195 284.593,82.737 
		292.51,82.737 306.677,54.465 	"/>
	<path fill-rule="evenodd" clip-rule="evenodd" fill="#FFFFFF" d="M321.261,53.218c-9.619,0-16.667,9.178-16.667,19.957
		c0,11.275,9.175,10.394,11.667,10.394c2.492,0,9.584-2.079,9.584-2.079v-5.405c0,0-5.611,1.612-9.167,1.663
		c-3.557,0.051-4.167-2.91-4.167-2.91s-0.617-2.575-0.417-4.158c17.914,0,18.751-7.892,18.751-10.394
		C330.845,57.784,329.729,53.218,321.261,53.218z M313.344,66.106c0,0,3.108-10.842,9.584-6.653
		C326.528,66.387,313.344,66.106,313.344,66.106z"/>
	<polygon fill-rule="evenodd" clip-rule="evenodd" fill="#FFFFFF" points="334.595,40.744 334.178,45.318 338.761,45.734 
		331.678,82.737 339.178,82.737 347.095,39.913 	"/>
	<path fill-rule="evenodd" clip-rule="evenodd" fill="#FFFFFF" d="M377.513,39.497l-12.501,0.831l-0.833,4.989l4.583,0.832
		l-1.25,7.068c0,0-8.754-0.676-14.584,3.741c-5.83,4.418-7.055,14.257-7.084,17.047c-0.029,2.79-0.136,8.586,6.667,9.563
		c6.448,0.926,12.501-9.978,12.501-9.978l-2.917,9.562l12.5-0.415l0.833-5.405h-5L377.513,39.497z M355.012,76.916
		c-2.232,0.581-1.667-4.604-1.667-6.236c0-1.626,2.214-9.768,7.084-11.226c4.06-1.215,5.834,0,5.834,0
		S365.127,73.933,355.012,76.916z"/>
</g>
</svg>
